ModelForces
version=1
nRows=4
nColumns=157
inDegrees=no

This file contains the forces exerted on a model during a simulation.

A force is a generalized force, meaning that it can be either a force (N) or a torque (Nm).

Units are S.I. units (second, meters, Newtons, ...)
Angles are in degrees.

endheader
time	glut_med1_r	glut_med2_r	glut_med3_r	glut_min1_r	glut_min2_r	glut_min3_r	semimem_r	semiten_r	bifemlh_r	bifemsh_r	sar_r	add_long_r	add_brev_r	add_mag1_r	add_mag2_r	add_mag3_r	tfl_r	pect_r	grac_r	glut_max1_r	glut_max2_r	glut_max3_r	iliacus_r	psoas_r	quad_fem_r	gem_r	peri_r	rect_fem_r	vas_med_r	vas_int_r	vas_lat_r	med_gas_r	lat_gas_r	soleus_r	tib_post_r	flex_dig_r	flex_hal_r	tib_ant_r	per_brev_r	per_long_r	per_tert_r	ext_dig_r	ext_hal_r	glut_med1_l	glut_med2_l	glut_med3_l	glut_min1_l	glut_min2_l	glut_min3_l	semimem_l	semiten_l	bifemlh_l	bifemsh_l	sar_l	add_long_l	add_brev_l	add_mag1_l	add_mag2_l	add_mag3_l	tfl_l	pect_l	grac_l	glut_max1_l	glut_max2_l	glut_max3_l	iliacus_l	psoas_l	quad_fem_l	gem_l	peri_l	rect_fem_l	vas_med_l	vas_int_l	vas_lat_l	med_gas_l	lat_gas_l	soleus_l	tib_post_l	flex_dig_l	flex_hal_l	tib_ant_l	per_brev_l	per_long_l	per_tert_l	ext_dig_l	ext_hal_l	ercspn_r	ercspn_l	intobl_r	intobl_l	extobl_r	extobl_l	femur_lat_meniscii_r.femur_lat_r.force.X	femur_lat_meniscii_r.femur_lat_r.force.Y	femur_lat_meniscii_r.femur_lat_r.force.Z	femur_lat_meniscii_r.femur_lat_r.torque.X	femur_lat_meniscii_r.femur_lat_r.torque.Y	femur_lat_meniscii_r.femur_lat_r.torque.Z	femur_lat_meniscii_r.meniscus_lat_r.force.X	femur_lat_meniscii_r.meniscus_lat_r.force.Y	femur_lat_meniscii_r.meniscus_lat_r.force.Z	femur_lat_meniscii_r.meniscus_lat_r.torque.X	femur_lat_meniscii_r.meniscus_lat_r.torque.Y	femur_lat_meniscii_r.meniscus_lat_r.torque.Z	femur_med_meniscii_r.femur_med_r.force.X	femur_med_meniscii_r.femur_med_r.force.Y	femur_med_meniscii_r.femur_med_r.force.Z	femur_med_meniscii_r.femur_med_r.torque.X	femur_med_meniscii_r.femur_med_r.torque.Y	femur_med_meniscii_r.femur_med_r.torque.Z	femur_med_meniscii_r.meniscus_med_r.force.X	femur_med_meniscii_r.meniscus_med_r.force.Y	femur_med_meniscii_r.meniscus_med_r.force.Z	femur_med_meniscii_r.meniscus_med_r.torque.X	femur_med_meniscii_r.meniscus_med_r.torque.Y	femur_med_meniscii_r.meniscus_med_r.torque.Z	femur_med_tibia_r.tibia_upper_r.force.X	femur_med_tibia_r.tibia_upper_r.force.Y	femur_med_tibia_r.tibia_upper_r.force.Z	femur_med_tibia_r.tibia_upper_r.torque.X	femur_med_tibia_r.tibia_upper_r.torque.Y	femur_med_tibia_r.tibia_upper_r.torque.Z	femur_med_tibia_r.femur_med_r.force.X	femur_med_tibia_r.femur_med_r.force.Y	femur_med_tibia_r.femur_med_r.force.Z	femur_med_tibia_r.femur_med_r.torque.X	femur_med_tibia_r.femur_med_r.torque.Y	femur_med_tibia_r.femur_med_r.torque.Z	femur_lat_tibia_r.tibia_upper_r.force.X	femur_lat_tibia_r.tibia_upper_r.force.Y	femur_lat_tibia_r.tibia_upper_r.force.Z	femur_lat_tibia_r.tibia_upper_r.torque.X	femur_lat_tibia_r.tibia_upper_r.torque.Y	femur_lat_tibia_r.tibia_upper_r.torque.Z	femur_lat_tibia_r.femur_lat_r.force.X	femur_lat_tibia_r.femur_lat_r.force.Y	femur_lat_tibia_r.femur_lat_r.force.Z	femur_lat_tibia_r.femur_lat_r.torque.X	femur_lat_tibia_r.femur_lat_r.torque.Y	femur_lat_tibia_r.femur_lat_r.torque.Z	aACL_R	pACL_R	aPCL_R	pPCL_R	aMCL_R	mMCL_R	pMCL_R	aLCL_R	mLCL_R	pLCL_R	ground_prescribedForce_fx	ground_prescribedForce_fy	ground_prescribedForce_fz	ground_prescribedForce_px	ground_prescribedForce_py	ground_prescribedForce_pz
      0.40698456	      7.71291008	      5.77935586	      6.18784282	      2.70996518	      3.23415431	      3.26237429	      6.60555163	      4.09604283	      7.11676123	      7.15534418	      0.00000000	      5.72715821	      4.21980739	      2.97701916	      2.50373517	      4.07755643	      4.57275543	      2.28195426	      1.56839720	      3.72932438	      5.66766172	      4.23230937	     22.85362996	     13.19862852	      3.69780588	      2.88763411	      4.22170589	     11.29891297	      8.10695895	      8.53314425	     11.10179215	      3.03278322	      1.70245894	      8.57644353	     10.28746478	      2.72305239	      3.51046826	     13.04912645	      4.16940716	      7.94689253	     10.59065258	      6.78615814	      1.14170280	      7.71291008	      5.77935586	      6.18784282	      2.70996518	      3.23415431	      3.26237429	      8.98523534	      4.17161100	      7.88270391	      7.35763981	      1.54877530	      5.72715821	      4.21980739	      2.97701916	      2.50373517	      4.07755643	      4.15275621	      2.28195426	      1.58900035	      3.72932438	      5.66766172	      4.23230937	     22.85362996	     13.19862852	      3.69780588	      2.88763411	      4.22170589	     10.93920771	      6.72793428	      7.72050478	      8.30076448	     14.52983387	      6.74694409	     32.08564763	     42.75170910	      2.86793216	      3.02174674	      8.65657096	      4.45651432	     12.73884520	      2.04183351	      5.40854314	      1.71598613	     25.48761227	     25.48761227	      9.18884197	      9.18884197	     26.97423921	     26.97423921	     34.37023728	     51.89634445	     12.79835790	     -6.56502453	      0.83858820	     14.23638160	    -34.37023728	    -51.89634445	    -12.79835790	      1.78453176	     -0.98732371	     -0.79516509	     51.98243164	     70.61525489	     19.43486521	     -6.33958433	     -1.31673276	     21.72324753	    -51.98243164	    -70.61525489	    -19.43486521	     -0.94103304	      1.09141637	     -1.43110941	      0.00000000	      0.00000000	      0.00000000	      0.00000000	      0.00000000	      0.00000000	      0.00000000	      0.00000000	      0.00000000	      0.00000000	      0.00000000	      0.00000000	      0.00000000	      0.00000000	      0.00000000	      0.00000000	      0.00000000	      0.00000000	      0.00000000	      0.00000000	      0.00000000	      0.00000000	      0.00000000	      0.00000000	     39.80433287	     40.54458610	      0.00000000	      0.00000000	      0.00000000	      0.00000000	      0.00000000	      5.81834757	      0.00000000	      0.37472038	    106.25000000	    -28.47000000	      0.00000000	      0.03000000	     -0.03000000	      0.00000000
      0.40741892	      7.71197478	      5.77871215	      6.18714505	      2.70967615	      3.23384152	      3.26197950	      6.61304829	      4.09820856	      7.12113786	      7.15727497	      0.00000000	      5.72651286	      4.21936139	      2.97668997	      2.50345171	      4.07704544	      4.57055051	      2.28170933	      1.56891583	      3.72890927	      5.66702894	      4.23182821	     22.85246213	     13.19731382	      3.69740290	      2.88744512	      4.22097043	     11.30763970	      8.11644140	      8.54060224	     11.10900802	      3.03390556	      1.70085979	      8.57076050	     10.25323836	      2.71351603	      3.51418561	     13.05488771	      4.17571761	      7.95785079	     10.46871882	      6.80505553	      1.14287632	      7.71197478	      5.77871215	      6.18714505	      2.70967615	      3.23384152	      3.26197950	      8.98387818	      4.17110996	      7.88157248	      7.35683749	      1.54861087	      5.72651286	      4.21936139	      2.97668997	      2.50345171	      4.07704544	      4.15243997	      2.28170933	      1.58882872	      3.72890927	      5.66702894	      4.23182821	     22.85246213	     13.19731382	      3.69740290	      2.88744512	      4.22097043	     10.93766705	      6.72716756	      7.71960799	      8.29980504	     14.52673613	      6.74550385	     32.08006517	     42.74950269	      2.86723795	      3.02117022	      8.65541043	      4.45582305	     12.73723233	      2.04162967	      5.40776274	      1.71575621	     25.48488771	     25.48488771	      9.18777238	      9.18777238	     26.97327841	     26.97327841	     34.36411386	     51.88357943	     12.80155193	     -6.56603717	      0.83843384	     14.23385040	    -34.36411386	    -51.88357943	    -12.80155193	      1.78426004	     -0.98715275	     -0.79504205	     51.87021185	     70.45304520	     19.41847369	     -6.33660785	     -1.31408812	     21.67638857	    -51.87021185	    -70.45304520	    -19.41847369	     -0.93816884	      1.08916255	     -1.42809793	      0.00000000	      0.00000000	      0.00000000	      0.00000000	      0.00000000	      0.00000000	      0.00000000	      0.00000000	      0.00000000	      0.00000000	      0.00000000	      0.00000000	      0.00000000	      0.00000000	      0.00000000	      0.00000000	      0.00000000	      0.00000000	      0.00000000	      0.00000000	      0.00000000	      0.00000000	      0.00000000	      0.00000000	     39.81961910	     40.55086677	      0.00000000	      0.00000000	      0.00000000	      0.00000000	      0.00000000	      5.85246557	      0.00000000	      0.41075591	    106.25000000	    -28.47000000	      0.00000000	      0.03000000	     -0.03000000	      0.00000000
      0.40959076	      7.70737626	      5.77554719	      6.18371430	      2.70825505	      3.23230359	      3.26003846	      6.65026862	      4.10901764	      7.14232044	      7.16489284	      0.00000000	      5.72333983	      4.21716857	      2.97507145	      2.50205802	      4.07453305	      4.55966602	      2.28050504	      1.57252300	      3.72686829	      5.66391776	      4.22946246	     22.84672024	     13.19085001	      3.69542155	      2.88651592	      4.21735297	     11.35064085	      8.16478654	      8.57804572	     11.14567797	      3.04014512	      1.69421389	      8.54870354	     10.09150824	      2.66418321	      3.52939662	     13.08419380	      4.20434353	      8.01001958	     10.34406361	      6.90981814	      1.15069318	      7.70737626	      5.77554719	      6.18371430	      2.70825505	      3.23230359	      3.26003846	      8.97720496	      4.16864649	      7.87600941	      7.35289264	      1.54780240	      5.72333983	      4.21716857	      2.97507145	      2.50205802	      4.07453305	      4.15088517	      2.28050504	      1.58798485	      3.72686829	      5.66391776	      4.22946246	     22.84672024	     13.19085001	      3.69542155	      2.88651592	      4.21735297	     10.93009193	      6.72339784	      7.71519875	      8.29508781	     14.51148678	      6.73841389	     32.05260768	     42.73865236	      2.86381207	      3.01833086	      8.64970447	      4.45242388	     12.72929718	      2.04062743	      5.40393032	      1.71462689	     25.47149157	     25.47149157	      9.18251354	      9.18251354	     26.96855443	     26.96855443	     34.49889310	     52.06803215	     12.88010291	     -6.60306136	      0.84168408	     14.28971835	    -34.49889310	    -52.06803215	    -12.88010291	      1.79144912	     -0.99103067	     -0.79825166	     51.37589492	     69.92285956	     19.35664215	     -6.32226965	     -1.30225388	     21.46904678	    -51.37589492	    -69.92285956	    -19.35664215	     -0.93033507	      1.07902808	     -1.41300394	      0.00000000	      0.00000000	      0.00000000	      0.00000000	      0.00000000	      0.00000000	      0.00000000	      0.00000000	      0.00000000	      0.00000000	      0.00000000	      0.00000000	      0.00000000	      0.00000000	      0.00000000	      0.00000000	      0.00000000	      0.00000000	      0.00000000	      0.00000000	      0.00000000	      0.00000000	      0.00000000	      0.00000000	     39.83533156	     40.51730790	      0.00000000	      0.00000000	      0.00000000	      0.00000000	      0.00000000	      5.81354324	      0.00000000	      0.38177843	    106.25000000	    -28.47000000	      0.00000000	      0.03000000	     -0.03000000	      0.00000000
      0.41420207	      7.69803013	      5.76911431	      6.17674128	      2.70536657	      3.22917767	      3.25609345	      6.71805215	      4.13189191	      7.17698986	      7.15920110	      0.00000000	      5.71689065	      4.21271190	      2.97178175	      2.49922536	      4.06942690	      4.53482823	      2.27805724	      1.57934295	      3.72272000	      5.65759427	      4.22465412	     22.83505005	     13.17771333	      3.69139432	      2.88462747	      4.20999324	     11.42684106	      8.27005539	      8.64897654	     11.20518034	      3.04763808	      1.68221358	      8.52281031	      9.80533174	      2.55192301	      3.54329640	     13.15447033	      4.24482029	      8.10078698	     10.64829815	      7.20559521	      1.17854947	      7.69803013	      5.76911431	      6.17674128	      2.70536657	      3.22917767	      3.25609345	      8.96363929	      4.16363965	      7.86470169	      7.34487452	      1.54615916	      5.71689065	      4.21271190	      2.97178175	      2.49922536	      4.06942690	      4.14772529	      2.27805724	      1.58626962	      3.72272000	      5.65759427	      4.22465412	     22.83505005	     13.17771333	      3.69139432	      2.88462747	      4.20999324	     10.91469491	      6.71573608	      7.70623733	      8.28550044	     14.48039474	      6.72395799	     31.99674816	     42.71658873	      2.85677990	      3.01253309	      8.63810733	      4.44551302	     12.71314244	      2.03859048	      5.39616750	      1.71233840	     25.44426299	     25.44426299	      9.17182513	      9.17182513	     26.95895314	     26.95895314	     35.10190282	     52.90872053	     13.14272233	     -6.73204693	      0.85611218	     14.53980238	    -35.10190282	    -52.90872053	    -13.14272233	      1.82130611	     -1.00799376	     -0.81264582	     50.82292964	     68.77603550	     19.34813768	     -6.34407423	     -1.28999614	     21.23660818	    -50.82292964	    -68.77603550	    -19.34813768	     -0.90882568	      1.06860322	     -1.39799865	      0.00000000	      0.00000000	      0.00000000	      0.00000000	      0.00000000	      0.00000000	      0.00000000	      0.00000000	      0.00000000	      0.00000000	      0.00000000	      0.00000000	      0.00000000	      0.00000000	      0.00000000	      0.00000000	      0.00000000	      0.00000000	      0.00000000	      0.00000000	      0.00000000	      0.00000000	      0.00000000	      0.00000000	     39.78620806	     40.34405394	      0.00000000	      0.00000000	      0.00000000	      0.00000000	      0.00000000	      5.58677608	      0.00000000	      0.17626547	    106.25000000	    -28.47000000	      0.00000000	      0.03000000	     -0.03000000	      0.00000000
